<svg width="56" height="56" viewBox="0 0 56 56" fill="none" xmlns="http://www.w3.org/2000/svg">
<path d="M45.15 23.4263C43.5633 15.3763 36.4933 9.33301 28 9.33301C21.2567 9.33301 15.4 13.1597 12.4833 18.7597C5.46 19.5063 0 25.4563 0 32.6663C0 40.3897 6.27667 46.6663 14 46.6663H44.3333C50.7733 46.6663 56 41.4397 56 34.9997C56 28.8397 51.2167 23.8463 45.15 23.4263ZM44.3333 41.9997H14C8.84333 41.9997 4.66667 37.823 4.66667 32.6663C4.66667 27.883 8.23667 23.893 12.9733 23.403L15.47 23.1463L16.6367 20.9297C18.8533 16.6597 23.1933 13.9997 28 13.9997C34.1133 13.9997 39.3867 18.3397 40.5767 24.3363L41.2767 27.8363L44.8467 28.093C48.4867 28.3263 51.3333 31.383 51.3333 34.9997C51.3333 38.8497 48.1833 41.9997 44.3333 41.9997ZM18.6667 30.333H24.6167V37.333H31.3833V30.333H37.3333L28 20.9997L18.6667 30.333Z" fill="#215CFF"/>
</svg>
